<svg width="36" height="44" viewBox="0 0 36 44" fill="none" xmlns="http://www.w3.org/2000/svg">
<path d="M18.0378 21.6C12.0816 21.6 7.2378 16.7562 7.2378 10.8C7.2378 4.8438 12.0834 0 18.0378 0C23.9922 0 28.8378 4.8438 28.8378 10.8C28.8378 16.7562 23.994 21.6 18.0378 21.6ZM21.6 32.7312V25.2H12.5622V32.8986C13.6332 33.5214 14.3622 34.6698 14.3622 36C14.3622 37.989 12.7512 39.6 10.7622 39.6C8.7732 39.6 7.1622 37.989 7.1622 36C7.1622 34.6716 7.8912 33.5232 8.9622 32.8986V25.2036C4.0176 25.2252 0 29.25 0 34.2V38.2C0 40.9614 2.23858 43.2 5 43.2H18V37.8C18 35.4564 19.5102 33.4764 21.6 32.7312ZM27 25.2H25.2V32.7312C27.2898 33.4764 28.8 35.4564 28.8 37.8V43.2H31C33.7614 43.2 36 40.9614 36 38.2V34.2C36 29.2374 31.9626 25.2 27 25.2ZM23.4 36C22.4064 36 21.6 36.8064 21.6 37.8V43.2H25.2V37.8C25.2 36.8064 24.3936 36 23.4 36Z" fill="#0460A9"/>
</svg>
